<svg viewBox="0 0 512 512" xmlns="http://www.w3.org/2000/svg"><g transform="translate(0 -540.36)"><path d="m471.95 793.41c0 120.9-98.01 218.9-218.9 218.9-120.9 0-218.9-98.01-218.9-218.9 0-120.9 98.01-218.9 218.9-218.9 120.9 0 218.9 98.01 218.9 218.9" fill="#68af4c" fill-rule="evenodd"/><text x="-1160.48" y="1089.88"><tspan x="-1160.48" y="1089.88"/></text><text transform="scale(4.0128 .2492)" x="28.534" y="3810.6299"/><text x="-454.14001" y="934.25"><tspan x="-454.14001" y="934.25"/></text><text transform="scale(4.0128 .2492)" x="204.55" y="3186.1001"/><text x="-420.76999" y="926.13"><tspan x="-420.76999" y="926.13"/></text><text transform="scale(4.0128 .2492)" x="212.87" y="3153.5"/><text x="-163.95" y="657.67999"><tspan x="-163.95" y="657.67999"/></text><text transform="scale(4.0128 .2492)" x="52.951" y="2472.99"/><text x="-474.79001" y="1024.45"><tspan x="-474.79001" y="1024.45"/></text><text transform="scale(4.0128 .2492)" x="199.41" y="3548.0701"/><text x="231.56" y="868.82001"><tspan x="231.56" y="868.82001"/></text><text transform="scale(4.0128 .2492)" x="375.42999" y="2923.55"/><text x="264.92999" y="860.70001"><tspan x="264.92999" y="860.70001"/></text><text transform="scale(4.0128 .2492)" x="383.75" y="2890.95"/><path d="m365.5 129.28c-9.884 1.237-17.616 16.99-28.563 23.563-14.965-5.137-38.36-17.864-58.906-19.531-9.17-2.426-17.936-2.908-27.375-2.844l1.438 1.063c-62.58-1.771-114.06 44.913-122.87 106.56-7.462 43.98 12.63 78.55 37.5 116.44 38.539 38.432 76.953 77 115.44 115.5 50.02-6.646 96.3-29.11 129.73-63.62-2.771-2.77 8.566.529 5.795-2.241 7.528-6.913 4.21-19.459 12.536-17.567 27.759-36.69 41.719-83.99 41.719-133.54 0-6.134-.255-12.212-.75-18.219-35.28-35.22-70.61-70.41-105.69-105.56" fill-opacity=".235" transform="translate(0 540.36)"/><text x="-1157.49" y="1050.14"><tspan x="-1157.49" y="1050.14"/></text><text transform="scale(4.0128 .2492)" x="29.280001" y="3651.1399"/><text x="-451.14999" y="894.51001"><tspan x="-451.14999" y="894.51001"/></text><text transform="scale(4.0128 .2492)" x="205.3" y="3026.6201"/><text x="-417.78" y="886.38"><tspan x="-417.78" y="886.38"/></text><text transform="scale(4.0128 .2492)" x="213.62" y="2994.02"/><text transform="matrix(.8660254 .5 -.5 .8660254 0 0)" x="-795.16998" y="857.65997"><tspan x="-795.16998" y="857.65997"/></text><text transform="matrix(3.4752 2.0064 -.1246 .21581 0 0)" x="119.57" y="2878.77"/><text transform="matrix(.8660254 .5 -.5 .8660254 0 0)" x="-88.830002" y="702.03003"><tspan x="-88.830002" y="702.03003"/></text><text transform="matrix(3.4752 2.0064 -.1246 .21581 0 0)" x="295.59" y="2254.25"/><text transform="matrix(.8660254 .5 -.5 .8660254 0 0)" x="-55.450001" y="693.90997"><tspan x="-55.450001" y="693.90997"/></text><text transform="matrix(3.4752 2.0064 -.1246 .21581 0 0)" x="303.91" y="2221.6499"/><text transform="matrix(.8660254 .5 -.5 .8660254 0 0)" x="201.36" y="425.47"><tspan x="201.36" y="425.47"/></text><text transform="matrix(3.4752 2.0064 -.1246 .21581 0 0)" x="143.99001" y="1541.14"/><g fill-rule="evenodd"><path d="m256 541.36c-140.83 0-255 114.17-255 255s114.17 255 255 255 255-114.17 255-255-114.17-255-255-255m8.827 44.931c120.9 0 218.9 98 218.9 218.9s-98 218.9-218.9 218.9-218.93-98-218.93-218.9 98.03-218.9 218.93-218.9" fill-opacity=".067"/><g fill-opacity=".129"><path d="m256 544.79c-138.94 0-251.57 112.63-251.57 251.57s112.63 251.54 251.57 251.54 251.57-112.6 251.57-251.54-112.63-251.57-251.57-251.57m5.885 38.556c120.9 0 218.9 98 218.9 218.9s-98 218.9-218.9 218.9-218.93-98-218.93-218.9 98.03-218.9 218.93-218.9"/><path d="m256 548.72c-136.77 0-247.64 110.87-247.64 247.64s110.87 247.64 247.64 247.64 247.64-110.87 247.64-247.64-110.87-247.64-247.64-247.64m2.942 31.691c120.9 0 218.9 98 218.9 218.9s-98 218.9-218.9 218.9-218.93-98-218.93-218.9 98.03-218.9 218.93-218.9"/></g><path d="m253.04 548.22c-135.42 0-245.19 109.78-245.19 245.19 0 135.42 109.78 245.19 245.19 245.19 135.42 0 245.19-109.78 245.19-245.19 0-135.42-109.78-245.19-245.19-245.19zm0 26.297c120.9 0 218.9 98 218.9 218.9s-98 218.9-218.9 218.9-218.93-98-218.93-218.9 98.03-218.9 218.93-218.9z" fill="#fff" stroke="#000" stroke-opacity=".31" stroke-width="4.904"/></g><text x="729.64001" y="771.71997"><tspan x="729.64001" y="771.71997"/></text><text transform="scale(4.0128 .2492)" x="378.91" y="2747.6399"/><text x="1310.91" y="691.71997"><tspan x="1310.91" y="691.71997"/></text><text transform="scale(4.0128 .2492)" x="523.76001" y="2426.6001"/><text x="239.33" y="510.45999"><tspan x="239.33" y="510.45999"/></text><text transform="scale(4.0128 .2492)" x="256.72" y="1699.25"/><text x="1337.38" y="293.98999"><tspan x="1337.38" y="293.98999"/></text><text transform="scale(4.0128 .2492)" x="530.35999" y="830.57001"/><text x="1918.65" y="213.99001"><tspan x="1918.65" y="213.99001"/></text><text transform="scale(4.0128 .2492)" x="675.21002" y="509.54001"/><text x="1529.53" y="-258.41"><tspan x="1529.53" y="-258.41"/></text><text transform="scale(4.0128 .2492)" x="578.23999" y="-1386.12"/><text x="2110.79" y="-338.42001"><tspan x="2110.79" y="-338.42001"/></text><text transform="scale(4.0128 .2492)" x="723.09003" y="-1707.16"/><text x="277.98999" y="1076.3"><tspan x="277.98999" y="1076.3"/></text><path d="m177.98 904.29c8.153 5.49 14.14 8.751 23.899 13.02 4.438 1.94 19.1 6.486 24.26 7.523 8.558 1.719 18.356 2.754 26.24 2.772 7.638.017 22.22-1.649 29.61-3.384 4.889-1.148 20.862-6.544 24.694-8.343 14.665-6.883 23.16-12.584 33.02-22.17l7.629-7.411-.262-2.045c-.248-1.931-1.159-2.941-16.413-18.2-14.629-14.629-16.315-16.17-17.897-16.303-2.471-.215-5.079.982-7.607 3.491-3.959 3.93-14.308 10.879-19.713 13.237-4.04 1.762-14.911 5.295-16.888 5.488-1.274.124-3.885.526-5.802.892-6.699 1.28-22.06.493-28.789-1.476-.786-.23-2.889-.826-4.674-1.325-12.743-3.56-28.397-14.176-36.927-25.04-6.28-7.999-11.694-18.07-13.832-25.718-.499-1.785-1.091-3.893-1.316-4.683-.941-3.302-1.993-12.25-2.077-17.66-.082-5.301 1.045-15.835 2.069-19.335.23-.785.826-2.889 1.325-4.674 2.787-9.975 10.748-23.286 18.85-31.518 3.569-3.626 13.2-10.891 16.646-12.557 1.465-.708 2.929-1.546 3.253-1.863.892-.872 11.567-4.846 16.664-6.204 3.527-.94 12.147-2.122 12.548-1.721.241.241.639.237.884-.008.808-.808 12.643-.309 18.14.766 2.968.58 5.932 1.071 6.588 1.092s1.392.239 1.637.483c.245.245 1.362.636 2.484.87s3.054.882 4.295 1.44c6.292 2.833 12.406 6.05 14.394 7.566l2.223 1.699-14.173 14.173c-10.816 10.816-14.224 14.505-14.391 15.577-.12.772.525 2.377 1.433 3.567 1.374 1.8 2.359 2.357 5.873 3.324 36.35 7.178 64.12 12.727 103.29 20.508 5.159 1.447 7.303 1.184 9.674-1.187 2.816-2.816 2.778-3.861-.688-19.11l-18.788-94.06c-.98-3.256-1.655-4.421-3.299-5.687-1.137-.876-2.699-1.494-3.471-1.374-1.065.165-4.555 3.369-14.467 13.281l-13.06 13.06-2.631-2.631c-4.79-4.79-21.2-14.336-30.81-17.918-8.626-3.216-11.513-4.142-18.17-5.827-4.051-1.025-7.596-1.841-7.878-1.812s-2.579-.358-5.103-.858c-5.975-1.185-30.1-1.192-36.01-.01-2.529.506-4.864.88-5.187.831-1.118-.169-12.556 2.896-18.622 4.99-3.349 1.156-6.917 2.372-7.93 2.701-3.833 1.248-18.931 9.505-24.971 13.657-5.346 3.675-8 6.04-17.704 15.753-12.05 12.07-16.701 17.934-21.372 26.969-1.061 2.051-2.237 4.04-2.614 4.415-.587.587-2.078 3.706-4.254 8.899-.902 2.151-5.932 16.935-6.561 19.28-2.545 9.493-4.199 23.24-4.083 33.929.08 7.318 1.497 21.22 2.453 24.08.33.987.662 2.427.737 3.2.233 2.407 5.486 18.776 7.473 23.287 3.512 7.971 6.765 13.823 12.276 22.09 4.121 6.179 5.563 7.813 16.442 18.629 9.835 9.778 12.891 12.506 17.44 15.569" fill="#fff"/></g></svg>